<?xml version="1.0" encoding="UTF-8"?>
<svg width="160" height="160" viewBox="0 0 160 160" xmlns="http://www.w3.org/2000/svg">
  <rect x="70" y="60" width="10" height="10" fill="#ffffff"/>
  <rect x="80" y="60" width="10" height="10" fill="#ffffff"/>
  <rect x="60" y="70" width="10" height="10" fill="#ffffff"/>
  <rect x="70" y="70" width="10" height="10" fill="#ffffff"/>
  <rect x="80" y="70" width="10" height="10" fill="#ffffff"/>
  <rect x="90" y="70" width="10" height="10" fill="#ffffff"/>
  <rect x="50" y="80" width="10" height="10" fill="#ffffff"/>
  <rect x="60" y="80" width="10" height="10" fill="#ffffff"/>
  <rect x="90" y="80" width="10" height="10" fill="#ffffff"/>
  <rect x="100" y="80" width="10" height="10" fill="#ffffff"/>
  <rect x="40" y="90" width="10" height="10" fill="#ffffff"/>
  <rect x="50" y="90" width="10" height="10" fill="#ffffff"/>
  <rect x="100" y="90" width="10" height="10" fill="#ffffff"/>
  <rect x="110" y="90" width="10" height="10" fill="#ffffff"/>
  <rect x="30" y="100" width="10" height="10" fill="#ffffff"/>
  <rect x="40" y="100" width="10" height="10" fill="#ffffff"/>
  <rect x="110" y="100" width="10" height="10" fill="#ffffff"/>
  <rect x="120" y="100" width="10" height="10" fill="#ffffff"/>
  <rect x="20" y="110" width="10" height="10" fill="#ffffff"/>
  <rect x="30" y="110" width="10" height="10" fill="#ffffff"/>
  <rect x="120" y="110" width="10" height="10" fill="#ffffff"/>
  <rect x="130" y="110" width="10" height="10" fill="#ffffff"/>
  <rect x="10" y="120" width="10" height="10" fill="#ffffff"/>
  <rect x="20" y="120" width="10" height="10" fill="#ffffff"/>
  <rect x="130" y="120" width="10" height="10" fill="#ffffff"/>
  <rect x="140" y="120" width="10" height="10" fill="#ffffff"/>
</svg>