<?xml version="1.0" encoding="UTF-8"?>
<svg width="160" height="160" viewBox="0 0 160 160" xmlns="http://www.w3.org/2000/svg">
  <rect x="20" y="20" width="10" height="10" fill="#ffffff"/>
  <rect x="30" y="20" width="10" height="10" fill="#ffffff"/>
  <rect x="40" y="20" width="10" height="10" fill="#ffffff"/>
  <rect x="110" y="20" width="10" height="10" fill="#ffffff"/>
  <rect x="120" y="20" width="10" height="10" fill="#ffffff"/>
  <rect x="130" y="20" width="10" height="10" fill="#ffffff"/>
  <rect x="20" y="30" width="10" height="10" fill="#ffffff"/>
  <rect x="130" y="30" width="10" height="10" fill="#ffffff"/>
  <rect x="20" y="40" width="10" height="10" fill="#ffffff"/>
  <rect x="130" y="40" width="10" height="10" fill="#ffffff"/>
  <rect x="60" y="50" width="10" height="10" fill="#ffffff"/>
  <rect x="100" y="50" width="10" height="10" fill="#ffffff"/>
  <rect x="50" y="60" width="10" height="10" fill="#ffffff"/>
  <rect x="90" y="60" width="10" height="10" fill="#ffffff"/>
  <rect x="40" y="90" width="10" height="10" fill="#ffffff"/>
  <rect x="110" y="90" width="10" height="10" fill="#ffffff"/>
  <rect x="50" y="100" width="10" height="10" fill="#ffffff"/>
  <rect x="100" y="100" width="10" height="10" fill="#ffffff"/>
  <rect x="20" y="110" width="10" height="10" fill="#ffffff"/>
  <rect x="60" y="110" width="10" height="10" fill="#ffffff"/>
  <rect x="70" y="110" width="10" height="10" fill="#ffffff"/>
  <rect x="80" y="110" width="10" height="10" fill="#ffffff"/>
  <rect x="90" y="110" width="10" height="10" fill="#ffffff"/>
  <rect x="130" y="110" width="10" height="10" fill="#ffffff"/>
  <rect x="20" y="120" width="10" height="10" fill="#ffffff"/>
  <rect x="130" y="120" width="10" height="10" fill="#ffffff"/>
  <rect x="20" y="130" width="10" height="10" fill="#ffffff"/>
  <rect x="30" y="130" width="10" height="10" fill="#ffffff"/>
  <rect x="40" y="130" width="10" height="10" fill="#ffffff"/>
  <rect x="110" y="130" width="10" height="10" fill="#ffffff"/>
  <rect x="120" y="130" width="10" height="10" fill="#ffffff"/>
  <rect x="130" y="130" width="10" height="10" fill="#ffffff"/>
</svg>